<svg id="Capa_1" enable-background="new 0 0 512 512" height="512" viewBox="0 0 512 512" width="512" xmlns="http://www.w3.org/2000/svg"><g><path d="m499.42 263.047c1.665-4.695 2.58-9.742 2.58-15 0-15.531-7.909-29.248-19.91-37.338v-108.756c0-24.813-20.187-45-45-45h-362.18c-24.813 0-45 20.187-45 45v108.756c-12.001 8.09-19.91 21.807-19.91 37.338 0 5.258.915 10.305 2.58 15h-12.58v192h30v-45.906h452v45.906h30v-192zm-424.51-176.094h362.18c8.271 0 15 6.729 15 15v101.094h-29.957v-15c0-24.813-20.187-45-45-45h-91.133c-11.517 0-22.033 4.354-30 11.495-7.968-7.142-18.483-11.495-30-11.495h-91.133c-24.813 0-45 20.187-45 45v15h-29.957v-101.094c0-8.271 6.729-15 15-15zm166.09 116.094h-121.133v-15c0-8.271 6.729-15 15-15h91.133c8.271 0 15 6.729 15 15zm30-15c0-8.271 6.729-15 15-15h91.133c8.271 0 15 6.729 15 15v15h-121.133zm-231 60c0-8.271 6.729-15 15-15h402c8.271 0 15 6.729 15 15s-6.729 15-15 15h-402c-8.271 0-15-6.729-15-15zm-10 45h452v86.094h-452z"/></g></svg>