<svg id="Capa_1" enable-background="new 0 0 512 512" height="512" viewBox="0 0 512 512" width="512" xmlns="http://www.w3.org/2000/svg"><g id="XMLID_1248_"><g id="XMLID_102_"><path id="XMLID_104_" d="m302.542 341.89c-34.21 28.886-64.817 61.938-90.974 98.237-3.229 4.481-2.213 10.731 2.267 13.96 1.769 1.274 3.812 1.888 5.838 1.888 3.105 0 6.168-1.443 8.122-4.155 25.2-34.974 54.689-66.818 87.649-94.648 4.22-3.563 4.752-9.873 1.189-14.092-3.562-4.22-9.87-4.753-14.091-1.19z"/><path id="XMLID_109_" d="m511.33 241.374c-1.488-3.857-5.196-6.401-9.33-6.401-9.986 0-19.935.265-29.842.78v-19.742c9.481-1.947 18.195-6.609 25.196-13.611 13.445-13.446 18.113-33.745 11.892-51.714l-28.041-80.989c-2.876-8.305-10.415-13.672-19.205-13.672s-16.329 5.367-19.205 13.674l-28.043 80.989c-6.22 17.969-1.552 38.267 11.893 51.713 7.08 7.08 15.909 11.775 25.513 13.682v21.071c-20.287 1.77-40.363 4.614-60.158 8.499v-45.552c0-1.428-.306-2.838-.897-4.138l-20-44c-1.622-3.57-5.182-5.862-9.103-5.862h-52v-30.127c0-1.428-.306-2.838-.897-4.138l-20-44c-1.623-3.57-5.182-5.862-9.103-5.862h-48c-3.921 0-7.481 2.292-9.104 5.862l-20 44c-.591 1.3-.896 2.711-.896 4.138v30.127h-52c-3.921 0-7.481 2.292-9.104 5.862l-20 44c-.591 1.3-.896 2.71-.896 4.138v45.432c-19.807-3.873-39.868-6.691-60.159-8.432v-21.055c9.355-1.864 18.277-6.408 25.513-13.644 13.446-13.446 18.114-33.745 11.893-51.714l-28.042-80.989c-2.876-8.306-10.414-13.674-19.205-13.674-8.79 0-16.329 5.367-19.206 13.674l-28.041 80.988c-6.222 17.969-1.554 38.268 11.892 51.714 7.155 7.154 15.958 11.672 25.196 13.575v19.766c-9.898-.504-19.845-.769-29.841-.769-5.523 0-10 4.477-10 10s4.477 10 10 10c78.029 0 153.053 15.937 223.32 47.377-32.308 17.352-62.97 37.878-91.541 61.361-38.036-34.408-80.951-62.393-127.701-83.232-5.043-2.25-10.956.017-13.205 5.062-2.249 5.044.018 10.957 5.062 13.205 44.024 19.624 84.503 45.862 120.489 78.054-18.05 15.943-35.189 33.107-51.28 51.456-16.327-30.017-35.608-58.511-57.442-84.871-3.523-4.254-9.827-4.846-14.08-1.322-4.253 3.523-4.845 9.827-1.322 14.08 24.066 29.055 44.907 60.801 61.945 94.357 1.523 3 4.454 5.033 7.798 5.41 3.346.378 6.653-.954 8.805-3.54 90.125-108.305 216.851-176.723 354.862-193.402-20.065 8.775-39.612 18.762-58.499 29.914-4.756 2.808-6.335 8.94-3.527 13.695 1.866 3.16 5.198 4.917 8.621 4.917 1.728 0 3.478-.448 5.074-1.39 23.908-14.116 48.913-26.291 74.706-36.421-49.236 50.81-90.315 108.418-122.414 171.771-2.496 4.926-.526 10.944 4.4 13.44 1.448.734 2.991 1.082 4.512 1.082 3.649 0 7.166-2.004 8.928-5.483 37.96-74.917 88.833-141.572 151.207-198.11 3.061-2.777 4.099-7.152 2.612-11.009zm-77.679-84.143 28.042-80.988c.039-.111.074-.172.066-.172.103-.062.382-.062.457-.023.011.014.048.075.09.194l28.041 80.989c3.732 10.781.932 22.96-7.136 31.028-5.666 5.666-13.199 8.786-21.212 8.786s-15.546-3.12-21.212-8.786c-8.066-8.067-10.867-20.247-7.136-31.028zm-411.999 0 28.042-80.988c.039-.111.073-.172.066-.173.105-.061.38-.061.457-.022.011.014.048.075.089.194l28.042 80.989c3.733 10.781.932 22.96-7.136 31.027-11.696 11.696-30.728 11.697-42.424 0-8.068-8.067-10.869-20.245-7.136-31.027zm319.348 72.243c-5.522 0-10 4.477-10 10v21.705c-7.05 2.22-14.051 4.577-21 7.068v-58.146h62v39.85c-7.04 1.648-14.042 3.424-21 5.336v-15.813c0-5.523-4.478-10-10-10zm-85 23.5c-5.523 0-10 4.477-10 10v23.152c-7.941-3.636-15.943-7.076-24-10.327v-65.825h68v65.877c-8.08 3.246-16.082 6.676-24 10.291v-23.168c0-5.523-4.478-10-10-10zm34-127v64h-24v-25.5c0-5.523-4.478-10-10-10-5.523 0-10 4.477-10 10v25.5h-24v-64zm65.56 40.127 10.909 24h-56.469v-24zm-117.121-84.127h35.121l10.909 24h-56.94zm-82 84.127h45.561v24h-56.47zm-16.439 44h62v58.066c-6.96-2.506-13.961-4.865-21-7.089v-21.605c0-5.523-4.477-10-10-10s-10 4.477-10 10v15.688c-6.965-1.917-13.965-3.698-21-5.343z"/><path id="XMLID_549_" d="m351.64 329.039c1.86-1.86 2.93-4.44 2.93-7.07s-1.069-5.21-2.93-7.07c-1.87-1.86-4.439-2.93-7.07-2.93-2.64 0-5.22 1.07-7.079 2.93-1.86 1.86-2.931 4.43-2.931 7.07 0 2.63 1.07 5.21 2.931 7.07 1.869 1.86 4.439 2.93 7.079 2.93 2.63 0 5.2-1.07 7.07-2.93z"/></g></g></svg>