<?xml version="1.0"?>
<svg xmlns="http://www.w3.org/2000/svg" viewBox="0 0 512 512" width="512" height="512"><g id="_16-location" data-name="16-location"><g id="linear_color" data-name="linear color"><path d="M256,4C143.514,4,52,95.514,52,208c0,34.837,10.568,72.315,31.412,111.4,16.371,30.695,39.121,62.515,67.619,94.576C199.279,468.251,246.8,504.1,248.8,505.6a12,12,0,0,0,14.4,0c2-1.5,49.521-37.349,97.769-91.627,28.5-32.061,51.248-63.881,67.619-94.576C449.432,280.315,460,242.837,460,208,460,95.514,368.486,4,256,4Zm87.315,393.708A746.674,746.674,0,0,1,256,480.754a746.681,746.681,0,0,1-87.315-83.046C126.4,350.076,76,278.5,76,208c0-99.252,80.748-180,180-180s180,80.748,180,180C436,278.5,385.6,350.076,343.315,397.708Z"/><path d="M373.041,311.016A155.657,155.657,0,0,0,412,208c0-86.019-69.981-156-156-156S100,121.981,100,208a156.9,156.9,0,0,0,.931,17.007C109.477,303.266,175.952,364.029,256,364A155.556,155.556,0,0,0,373.041,311.016ZM260,292h-8V268h8Zm12-48H240a12,12,0,0,0-12,12v36H204V124H308V292H284V256A12,12,0,0,0,272,244ZM154.251,292A131.624,131.624,0,0,1,127,236h53v56ZM332,292V236h53a131.624,131.624,0,0,1-27.252,56ZM256,76c72.785,0,132,59.215,132,132,0,1.339-.026,2.671-.066,4H332V112a12,12,0,0,0-12-12H192a12,12,0,0,0-12,12V212H124.066c-.04-1.329-.066-2.661-.066-4C124,135.215,183.215,76,256,76ZM180.194,316H331.806a131.72,131.72,0,0,1-151.612,0Z"/><path d="M352,244a12,12,0,0,0-12,12v16a12,12,0,0,0,24,0V256A12,12,0,0,0,352,244Z"/><path d="M160,244a12,12,0,0,0-12,12v16a12,12,0,0,0,24,0V256A12,12,0,0,0,160,244Z"/><path d="M256,132a12,12,0,0,0-12,12v16a12,12,0,0,0,24,0V144A12,12,0,0,0,256,132Z"/><path d="M256,196a12,12,0,0,0-12,12v16a12,12,0,0,0,24,0V208A12,12,0,0,0,256,196Z"/><path d="M288,172a12,12,0,0,0,12-12V144a12,12,0,0,0-24,0v16A12,12,0,0,0,288,172Z"/><path d="M300,224V208a12,12,0,0,0-24,0v16a12,12,0,0,0,24,0Z"/><path d="M224,132a12,12,0,0,0-12,12v16a12,12,0,0,0,24,0V144A12,12,0,0,0,224,132Z"/><path d="M224,196a12,12,0,0,0-12,12v16a12,12,0,0,0,24,0V208A12,12,0,0,0,224,196Z"/></g></g></svg>
