<svg id="Capa_1" enable-background="new 0 0 512 512" height="512" viewBox="0 0 512 512" width="512" xmlns="http://www.w3.org/2000/svg"><g><path d="m444.633 130.006v-52.465h-30v52.465h-37.367v-113.297l-242.532 57.058v56.239h-37.367v-52.465h-30v52.465h-67.367v365.285h512v-365.285zm-414.633 335.285v-305.285h104.734v305.285zm241 0h-30v-30h30zm76.266 0h-46.266v-60h-90v60h-46.266v-367.763l182.531-42.942v410.705zm134.734 0h-104.734v-305.285h104.734z"/><path d="m194.734 135.29h46.266v30h-46.266z"/><path d="m271 135.29h46.266v30h-46.266z"/><path d="m194.734 195.291h46.266v30h-46.266z"/><path d="m271 195.291h46.266v30h-46.266z"/><path d="m194.734 255.291h46.266v30h-46.266z"/><path d="m271 255.291h46.266v30h-46.266z"/><path d="m194.734 315.291h46.266v30h-46.266z"/><path d="m59.234 195.291h46.266v30h-46.266z"/><path d="m59.234 255.291h46.266v30h-46.266z"/><path d="m59.234 315.291h46.266v30h-46.266z"/><path d="m406.5 195.291h46.266v30h-46.266z"/><path d="m406.5 255.291h46.266v30h-46.266z"/><path d="m406.5 315.291h46.266v30h-46.266z"/><path d="m59.234 375.291h46.266v30h-46.266z"/><path d="m406.5 375.291h46.266v30h-46.266z"/><path d="m271 315.291h46.266v30h-46.266z"/></g></svg>